# xmcd CD database file
#
# Track frame offsets:
#	150
#	28095
#	38737
#	51760
#	70225
#	88820
#	110700
#	131675
#	147550
#	165255
#	186897
#	197937
#	220425
#
# Disc length: 3470 seconds
#
# Revision: 0
# Processed by: cddbd v1.5.1PL2 Copyright (c) Steve Scherf et al.
# Submitted via: CDex 1.60beta1
#
DISCID=c80d8c0d
DTITLE=Various Artist(Rap) - 今夜は“ラップ”が入ってないんダヨネ。 オリジナル・カラオケ
DYEAR=1995
DGENRE=Rap
TTITLE0=今夜はブギー・バック (ラップ用カラオケ)
TTITLE1=マテリアル ラブ (オリジナル・カラオケ)
TTITLE2=ザ・ケトルマン (オリジナル・カラオケ)
TTITLE3=DAS THE MIC (オリジナル・カラオケ)
TTITLE4=謝り上手 (オリジナル・カラオケ)
TTITLE5=フッドラム東京 (オリジナル・カラオケ)
TTITLE6=DA.YO.NE (オリジナル・カラオケ)
TTITLE7=B.B.E (Bull Beam Express) (ライブ・カラオケ)
TTITLE8=SEXY BUDY and KINKY MONKEY (オリジナル・カラオケ)
TTITLE9=TAXI (オリジナル・カラオケ)
TTITLE10=巌窟王 (オリジナル・カラオケ)
TTITLE11=四番打者なのダ！ (オリジナル・カラオケ)
TTITLE12=GET UP AND DANCE (オリジナル・カラオケ)
EXTD=YEAR: 1995
EXTT0=
EXTT1=
EXTT2=
EXTT3=
EXTT4=
EXTT5=
EXTT6=
EXTT7=
EXTT8=
EXTT9=
EXTT10=
EXTT11=
EXTT12=
PLAYORDER=
